General
Unique ID                                : 328106781721058862383630586478563286764 (0xF6D7114D66EC03807BC9ADC3DE49DEEC)
Complete name                            : Alien Liberty International - LOST IN PARADISE (feat. AKLO) (Re-edit ver.) [WEB-DL 1080p AAC 2.0 x264-SEKAI].mkv
Format                                   : Matroska
Format version                           : Version 4
File size                                : 399 MiB
Duration                                 : 5 min 26 s
Overall bit rate                         : 10.2 Mb/s
Frame rate                               : 29.970 FPS
Title                                    : Alien Liberty International - LOST IN PARADISE (feat. AKLO) (Re-edit ver.) [WEB-DL 1080p AAC 2.0 x264-SEKAI]
Encoded date                             : 2026-04-25 19:22:27 UTC
Writing application                      : mkvmerge 98.0 ('Chonks') 64-bit
Writing library                          : libebml v1.4.5 + libmatroska v1.7.1
Website                                  : https://sekai-archivist.blogspot.com/

Video
ID                                       : 1
Format                                   : AVC
Format/Info                              : Advanced Video Codec
Format profile                           : High@L4
Format settings                          : CABAC / 5 Ref Frames
Format settings, CABAC                   : Yes
Format settings, Reference frames        : 5 frames
Format settings, Slice count             : 8 slices per frame
Codec ID                                 : V_MPEG4/ISO/AVC
Duration                                 : 5 min 26 s
Bit rate                                 : 9 946 kb/s
Width                                    : 1 920 pixels
Height                                   : 810 pixels
Display aspect ratio                     : 2.39:1
Frame rate mode                          : Constant
Frame rate                               : 29.970 (30000/1001) FPS
Color space                              : YUV
Chroma subsampling                       : 4:2:0 (Type 2)
Bit depth                                : 8 bits
Scan type                                : Progressive
Bits/(Pixel*Frame)                       : 0.213
Stream size                              : 387 MiB (97%)
Language                                 : Japanese
Default                                  : Yes
Forced                                   : No
Color range                              : Limited
Color primaries                          : BT.709
Transfer characteristics                 : BT.709
Matrix coefficients                      : BT.709

Audio
ID                                       : 2
Format                                   : AAC LC
Format/Info                              : Advanced Audio Codec Low Complexity
Codec ID                                 : A_AAC-2
Duration                                 : 5 min 26 s
Bit rate                                 : 288 kb/s
Channel(s)                               : 2 channels
Channel layout                           : L R
Sampling rate                            : 48.0 kHz
Frame rate                               : 46.875 FPS (1024 SPF)
Compression mode                         : Lossy
Stream size                              : 11.0 MiB (3%)
Language                                 : Japanese
Default                                  : Yes
Forced                                   : No


